<svg height="100%" stroke-miterlimit="10"
    style="fillRule:nonzero;clipRule:evenodd;stroke-linecap:round;stroke-linejoin:round;" version="1.1"
    viewBox="0 0 1024 1024" width="100%" xml:space="preserve" xmlns="http://www.w3.org/2000/svg"
    xmlns:vectornator="http://vectornator.io" xmlns:xlink="http://www.w3.org/1999/xlink">
    <rect width="1024" height="1024" fill="#7e22ce" rx="30"/>
   <g id="Layer-1" vectornator:layerName="Layer 1">
        <path d="M24.0198 25.916L1002.2 25.916L1002.2 998.354L24.0198 998.354L24.0198 25.916Z" fill="#7e22ce"
            fillRule="nonzero" opacity="1" stroke-linecap="butt" stroke-linejoin="round"
            stroke-width="10" />
        <g fill="#ffffff" opacity="1" stroke="#ffffff" stroke-linecap="butt" stroke-linejoin="round"
            stroke-width="12.7023">
            <path clip-path="url(#TextBounds)"
                d="M352.571 485.27L411.051 485.27L596.613 776.546L597.737 776.546L597.737 485.27L659.873 485.27L659.873 895.194L601.111 895.194L415.83 603.917L414.706 603.917L414.706 895.194L352.571 895.194L352.571 485.27Z" />
            <path clip-path="url(#TextBounds)"
                d="M894.356 869.327L893.231 869.327C887.795 879.261 879.361 886.571 867.927 891.257C856.681 896.131 841.124 898.567 821.255 898.567C788.642 898.193 763.525 889.57 745.906 872.701C727.35 856.207 718.072 835.12 718.072 809.441C718.072 784.887 726.131 764.55 742.251 748.431C758.371 731.936 781.988 723.502 813.102 723.127L894.356 723.127L894.356 692.481C894.731 666.802 874.769 654.338 834.47 655.087C819.85 655.087 808.322 656.587 799.888 659.586C791.078 663.147 784.143 669.145 779.082 677.58L779.082 677.58L732.973 642.435C755.278 613.195 788.173 598.95 831.658 599.7C868.396 599.325 897.73 606.26 919.66 620.505C941.59 635.125 952.742 660.242 953.117 695.855L953.117 895.194L894.356 895.194L894.356 869.327ZM894.356 771.485L824.067 771.485C789.954 772.235 773.084 783.95 773.459 806.63C773.459 816.564 777.864 824.999 786.673 831.934C795.108 839.619 809.072 843.461 828.565 843.461C853.12 843.836 870.458 840.931 880.579 834.745C889.763 828.56 894.356 814.502 894.356 792.572L894.356 771.485Z" />
        </g>
    </g>
</svg>